<svg width="431" height="150" viewBox="0 0 431 150" fill="none" xmlns="http://www.w3.org/2000/svg">
<g filter="url(#filter0_d_114_18)">
<path d="M54.024 65.608C54.088 67.272 54.136 68.952 54.168 70.648C54.2 72.312 54.248 73.976 54.312 75.64C54.056 75.672 53.816 75.704 53.592 75.736C53.4 75.736 53.192 75.752 52.968 75.784C52.744 74.536 52.504 73.416 52.248 72.424C51.736 70.728 51.224 69.528 50.712 68.824C50.328 68.536 49.944 68.312 49.56 68.152C48.632 67.576 47.288 67.288 45.528 67.288H40.968C40.552 67.288 40.152 67.304 39.768 67.336C39.384 67.336 39.016 67.352 38.664 67.384C37.576 67.416 36.824 67.64 36.408 68.056C36.024 68.44 35.832 69.08 35.832 69.976V94.408C35.832 95.624 36.072 96.44 36.552 96.856C37.192 97.304 38.536 97.528 40.584 97.528V99.064H28.728V97.528C29.592 97.528 30.296 97.464 30.84 97.336C31.384 97.24 31.784 97.096 32.04 96.904C32.552 96.52 32.808 95.704 32.808 94.456V69.976C32.808 69.624 32.76 69.32 32.664 69.064C32.6 68.84 32.52 68.664 32.424 68.536C32.36 68.376 32.28 68.216 32.184 68.056C31.704 67.48 30.552 67.192 28.728 67.192V65.608H54.024ZM79.128 87.688C79.128 91.208 78.184 94.104 76.296 96.376C74.408 98.648 71.992 99.784 69.048 99.784C66.104 99.784 63.688 98.648 61.8 96.376C59.912 94.104 58.968 91.208 58.968 87.688C58.968 84.104 59.912 81.176 61.8 78.904C63.656 76.696 66.072 75.592 69.048 75.592C71.992 75.592 74.408 76.696 76.296 78.904C78.184 81.176 79.128 84.104 79.128 87.688ZM75.96 87.688C75.96 84.68 75.32 82.2 74.04 80.248C72.728 78.264 71.064 77.272 69.048 77.272C67 77.272 65.32 78.264 64.008 80.248C62.76 82.168 62.136 84.648 62.136 87.688C62.136 90.664 62.776 93.128 64.056 95.08C65.368 97.064 67.032 98.056 69.048 98.056C71.096 98.056 72.76 97.08 74.04 95.128C74.68 94.104 75.16 93 75.48 91.816C75.8 90.6 75.96 89.224 75.96 87.688ZM104.328 87.496C104.328 91.08 103.368 93.976 101.448 96.184C99.592 98.136 97.32 99.112 94.632 99.112C92.136 99.112 90.104 98.472 88.536 97.192V102.088C88.536 103.016 88.792 103.656 89.304 104.008C89.848 104.36 90.632 104.536 91.656 104.536V106.12H82.488V104.536C83.832 104.536 84.712 104.328 85.128 103.912C85.448 103.592 85.608 102.984 85.608 102.088V80.92C85.608 80.76 85.592 80.632 85.56 80.536C85.56 80.44 85.544 80.344 85.512 80.248C85.48 80.088 85.432 79.96 85.368 79.864C85.336 79.768 85.288 79.672 85.224 79.576C84.872 79.256 84.04 79.096 82.728 79.096C82.696 78.936 82.664 78.776 82.632 78.616C82.6 78.424 82.568 78.248 82.536 78.088C83.56 77.704 84.568 77.336 85.56 76.984C86.552 76.632 87.544 76.264 88.536 75.88V77.848C90.296 76.568 92.376 75.928 94.776 75.928C97.592 75.928 99.864 76.952 101.592 79C101.752 79.16 101.896 79.304 102.024 79.432C102.152 79.56 102.28 79.704 102.408 79.864C103.688 81.912 104.328 84.456 104.328 87.496ZM101.112 87.544C101.112 86.104 100.92 84.824 100.536 83.704C100.184 82.552 99.688 81.544 99.048 80.68C97.768 78.824 95.992 77.896 93.72 77.896C91.64 77.896 89.912 78.616 88.536 80.056V94.792C89.912 96.328 91.64 97.096 93.72 97.096C95.768 97.096 97.496 96.184 98.904 94.36C100.376 92.6 101.112 90.328 101.112 87.544ZM134.831 99.064H123.455V97.624C125.183 97.624 126.367 97.256 127.007 96.52C127.167 96.264 127.279 96.008 127.343 95.752C127.439 95.464 127.487 95.096 127.487 94.648V82.792C125.439 84.712 123.407 86.632 121.391 88.552C119.375 90.44 117.343 92.344 115.295 94.264V94.984C115.295 95.592 115.423 96.104 115.679 96.52C116.223 97.256 117.423 97.624 119.279 97.624V99.064H107.903V97.624C109.407 97.624 110.527 97.4 111.263 96.952C111.935 96.536 112.271 95.768 112.271 94.648V80.296C112.271 79.272 111.951 78.568 111.311 78.184C110.671 77.768 109.535 77.56 107.903 77.56V76.12H119.279V77.56C117.935 77.56 116.911 77.768 116.207 78.184C115.599 78.568 115.295 79.272 115.295 80.296V92.104C117.343 90.184 119.375 88.264 121.391 86.344C123.407 84.424 125.439 82.504 127.487 80.584V80.296C127.487 79.272 127.151 78.568 126.479 78.184C125.743 77.768 124.735 77.56 123.455 77.56V76.12H134.831V77.56C133.775 77.56 132.927 77.656 132.287 77.848C131.679 78.008 131.231 78.264 130.943 78.616C130.687 78.968 130.559 79.528 130.559 80.296V94.648C130.559 95.8 130.863 96.584 131.471 97C132.079 97.416 133.199 97.624 134.831 97.624V99.064ZM157.134 92.248C157.134 94.52 156.142 96.312 154.158 97.624C152.174 98.968 149.726 99.64 146.814 99.64C144.478 99.64 142.51 98.984 140.91 97.672C139.342 96.52 138.558 95.096 138.558 93.4C138.558 92.856 138.638 92.376 138.798 91.96C139.022 91.288 139.582 90.952 140.478 90.952C141.886 90.952 142.59 91.576 142.59 92.824C142.59 93.848 142.062 94.6 141.006 95.08C141.486 96.168 142.366 96.92 143.646 97.336C144.478 97.656 145.518 97.832 146.766 97.864C147.022 97.864 147.262 97.848 147.486 97.816C147.71 97.816 147.95 97.816 148.206 97.816C149.678 97.624 150.862 97.176 151.758 96.472C153.166 95.448 153.87 94.072 153.87 92.344C153.87 90.968 153.278 89.784 152.094 88.792C151.934 88.696 151.774 88.616 151.614 88.552C151.486 88.456 151.342 88.36 151.182 88.264C150.222 87.688 149.182 87.384 148.062 87.352H147.246C147.054 87.384 146.878 87.4 146.718 87.4C146.59 87.4 146.478 87.4 146.382 87.4C146.158 87.4 145.966 87.224 145.806 86.872C145.678 86.744 145.614 86.536 145.614 86.248C145.614 85.864 145.822 85.656 146.238 85.624H146.814C146.942 85.624 147.054 85.64 147.15 85.672C147.278 85.672 147.422 85.672 147.582 85.672C147.838 85.672 148.014 85.656 148.11 85.624C148.782 85.624 149.422 85.512 150.03 85.288C150.638 85.064 151.166 84.76 151.614 84.376C152.062 83.96 152.414 83.496 152.67 82.984C152.958 82.44 153.102 81.864 153.102 81.256C153.102 79.912 152.654 78.888 151.758 78.184C150.83 77.448 149.502 77.08 147.774 77.08C146.174 77.08 144.766 77.736 143.55 79.048C142.43 80.2 141.662 81.688 141.246 83.512H140.142C140.206 82.232 140.286 80.968 140.382 79.72C140.478 78.44 140.558 77.16 140.622 75.88C140.814 75.88 141.006 75.896 141.198 75.928C141.422 75.928 141.63 75.928 141.822 75.928C141.886 76.216 141.934 76.52 141.966 76.84C142.03 77.128 142.094 77.416 142.158 77.704C142.798 77.16 143.502 76.696 144.27 76.312C145.326 75.8 146.67 75.544 148.302 75.544C150.542 75.544 152.35 76.008 153.726 76.936C155.358 77.96 156.174 79.4 156.174 81.256C156.174 83.656 154.734 85.4 151.854 86.488C155.374 87.512 157.134 89.432 157.134 92.248ZM181.128 87.688C181.128 91.208 180.184 94.104 178.296 96.376C176.408 98.648 173.992 99.784 171.048 99.784C168.104 99.784 165.688 98.648 163.8 96.376C161.912 94.104 160.968 91.208 160.968 87.688C160.968 84.104 161.912 81.176 163.8 78.904C165.656 76.696 168.072 75.592 171.048 75.592C173.992 75.592 176.408 76.696 178.296 78.904C180.184 81.176 181.128 84.104 181.128 87.688ZM177.96 87.688C177.96 84.68 177.32 82.2 176.04 80.248C174.728 78.264 173.064 77.272 171.048 77.272C169 77.272 167.32 78.264 166.008 80.248C164.76 82.168 164.136 84.648 164.136 87.688C164.136 90.664 164.776 93.128 166.056 95.08C167.368 97.064 169.032 98.056 171.048 98.056C173.096 98.056 174.76 97.08 176.04 95.128C176.68 94.104 177.16 93 177.48 91.816C177.8 90.6 177.96 89.224 177.96 87.688ZM210.936 99.112H199.944V97.624C201.32 97.624 202.328 97.4 202.968 96.952C203.512 96.504 203.784 95.816 203.784 94.888V87.88H191.592V94.888C191.592 95.912 191.816 96.6 192.264 96.952C192.904 97.4 193.992 97.624 195.528 97.624V99.112H184.584V97.624C186.248 97.624 187.384 97.368 187.992 96.856C188.376 96.472 188.568 95.816 188.568 94.888V80.056C188.568 79.16 188.36 78.552 187.944 78.232C187.336 77.784 186.232 77.56 184.632 77.56V76.072H195.336V77.56C193.832 77.56 192.824 77.768 192.312 78.184C191.832 78.632 191.592 79.256 191.592 80.056V86.152H203.784V80.056C203.784 79.256 203.512 78.632 202.968 78.184C202.36 77.768 201.352 77.56 199.944 77.56V76.072H210.648V77.56C209.144 77.56 208.088 77.768 207.48 78.184C207.064 78.568 206.856 79.192 206.856 80.056V94.888C206.856 95.944 207.064 96.632 207.48 96.952C208.12 97.4 209.272 97.624 210.936 97.624V99.112ZM237.78 76.12C238.228 77.464 238.692 78.808 239.172 80.152C239.652 81.496 240.116 82.856 240.564 84.232C240.308 84.296 240.068 84.376 239.844 84.472C239.652 84.568 239.428 84.648 239.172 84.712C238.404 82.728 237.572 81.24 236.676 80.248C236.516 80.056 236.356 79.88 236.196 79.72C236.036 79.528 235.876 79.352 235.716 79.192C235.204 78.68 234.612 78.328 233.94 78.136C233.3 77.912 232.612 77.8 231.876 77.8C231.364 77.8 230.916 77.832 230.532 77.896C230.148 77.96 229.812 78.04 229.524 78.136C228.852 78.392 228.516 79 228.516 79.96V95.368C228.516 95.816 228.596 96.168 228.756 96.424C228.98 96.744 229.252 96.968 229.572 97.096C230.244 97.416 231.62 97.576 233.7 97.576V99.064H220.26V97.576C222.212 97.576 223.492 97.416 224.1 97.096C224.516 96.968 224.852 96.728 225.108 96.376C225.332 96.152 225.444 95.816 225.444 95.368V79.96C225.444 79.384 225.348 78.936 225.156 78.616C224.964 78.296 224.596 78.088 224.052 77.992C223.636 77.864 222.916 77.8 221.892 77.8C221.412 77.8 220.932 77.864 220.452 77.992C219.588 78.152 218.724 78.68 217.86 79.576C217.444 79.992 216.948 80.616 216.372 81.448C215.828 82.248 215.204 83.256 214.5 84.472C214.34 84.408 214.164 84.328 213.972 84.232C213.78 84.136 213.604 84.056 213.444 83.992C213.892 82.648 214.34 81.336 214.788 80.056C215.268 78.776 215.748 77.464 216.228 76.12H237.78ZM264.159 97.336C262.751 99.032 261.503 99.88 260.415 99.88C259.007 99.88 258.159 98.984 257.871 97.192C255.887 98.984 253.487 99.88 250.671 99.88C248.463 99.88 246.799 99.416 245.679 98.488C245.103 98.008 244.655 97.432 244.335 96.76C244.015 96.056 243.855 95.24 243.855 94.312C243.855 92.04 245.055 90.104 247.455 88.504C247.647 88.376 247.839 88.264 248.031 88.168C248.223 88.04 248.431 87.912 248.655 87.784C251.183 86.536 254.239 85.672 257.823 85.192V81.784C257.823 80.6 257.439 79.592 256.671 78.76C256.319 78.376 255.887 78.088 255.375 77.896C254.863 77.704 254.303 77.576 253.695 77.512H253.023C252.767 77.512 252.559 77.528 252.399 77.56C251.503 77.656 250.751 77.912 250.143 78.328C248.991 78.968 248.415 79.688 248.415 80.488V80.728C248.415 82.296 247.727 83.08 246.351 83.08L246.303 83.032C245.087 82.936 244.479 82.232 244.479 80.92C244.479 79.512 245.455 78.328 247.407 77.368V77.224C249.327 76.328 251.471 75.88 253.839 75.88C255.791 75.88 257.423 76.408 258.735 77.464C260.079 78.712 260.751 80.408 260.751 82.552V95.608C260.751 96.12 260.799 96.52 260.895 96.808C260.991 97.16 261.119 97.416 261.279 97.576C261.343 97.64 261.423 97.672 261.519 97.672C261.999 97.672 262.687 97.32 263.583 96.616L264.159 97.336ZM257.823 86.968C255.071 87.256 252.591 88.04 250.383 89.32C248.207 90.568 247.119 92.216 247.119 94.264C247.119 95.288 247.519 96.12 248.319 96.76C249.151 97.368 250.191 97.672 251.439 97.672C252.335 97.672 253.119 97.56 253.791 97.336C255.167 97.016 256.511 96.296 257.823 95.176V86.968ZM295.898 99.112H283.322V97.672C284.954 97.672 286.186 97.4 287.018 96.856C287.754 96.376 288.122 95.608 288.122 94.552V77.656H279.242V89.848C279.242 93.08 278.618 95.512 277.37 97.144C276.058 98.968 273.962 99.88 271.082 99.88C269.706 99.88 268.618 99.592 267.818 99.016C266.922 98.408 266.474 97.528 266.474 96.376C266.474 95.576 266.698 94.952 267.146 94.504C267.626 94.024 268.218 93.784 268.922 93.784C270.266 93.784 271.082 94.44 271.37 95.752C271.594 96.456 271.898 96.936 272.282 97.192C272.73 97.544 273.21 97.72 273.722 97.72C275.034 97.72 276.058 96.872 276.794 95.176C277.338 93.832 277.609 92.44 277.609 91V80.008C277.609 79.112 277.258 78.472 276.554 78.088C275.914 77.8 274.698 77.656 272.906 77.656V76.072H295.898V77.656C294.074 77.656 292.778 77.848 292.01 78.232C291.466 78.616 291.194 79.368 291.194 80.488V94.504C291.194 95.56 291.466 96.328 292.01 96.808C292.81 97.384 294.106 97.672 295.898 97.672V99.112ZM323.387 91.864C323.387 94.552 322.251 96.472 319.979 97.624C318.283 98.584 315.947 99.064 312.971 99.064H299.003V97.432C301.019 97.432 302.347 97.256 302.987 96.904C303.627 96.36 303.947 95.656 303.947 94.792V80.344C303.947 79.384 303.707 78.712 303.227 78.328C302.587 77.88 301.227 77.656 299.146 77.656V76.12H312.011V77.608C309.995 77.608 308.651 77.8 307.979 78.184C307.339 78.568 307.019 79.288 307.019 80.344V84.664H311.819C312.075 84.664 312.331 84.68 312.587 84.712C312.875 84.712 313.147 84.712 313.403 84.712C316.219 84.744 318.443 85.208 320.075 86.104C322.283 87.32 323.387 89.24 323.387 91.864ZM320.315 91.864C320.315 90.104 319.707 88.76 318.491 87.832C317.723 87.16 316.651 86.744 315.275 86.584C315.115 86.552 314.939 86.536 314.747 86.536C314.555 86.504 314.379 86.488 314.219 86.488H307.019V95.08C307.019 95.688 307.131 96.152 307.355 96.472C307.835 97.08 308.875 97.384 310.475 97.384H312.779C313.579 97.384 314.347 97.336 315.083 97.24C316.459 97.112 317.579 96.712 318.443 96.04C319.691 95.08 320.315 93.688 320.315 91.864ZM353.061 99.112H342.069V97.624C343.445 97.624 344.453 97.4 345.093 96.952C345.637 96.504 345.909 95.816 345.909 94.888V87.88H333.717V94.888C333.717 95.912 333.941 96.6 334.389 96.952C335.029 97.4 336.117 97.624 337.653 97.624V99.112H326.709V97.624C328.373 97.624 329.509 97.368 330.117 96.856C330.501 96.472 330.693 95.816 330.693 94.888V80.056C330.693 79.16 330.485 78.552 330.069 78.232C329.461 77.784 328.357 77.56 326.757 77.56V76.072H337.461V77.56C335.957 77.56 334.949 77.768 334.437 78.184C333.957 78.632 333.717 79.256 333.717 80.056V86.152H345.909V80.056C345.909 79.256 345.637 78.632 345.093 78.184C344.485 77.768 343.477 77.56 342.069 77.56V76.072H352.773V77.56C351.269 77.56 350.213 77.768 349.605 78.184C349.189 78.568 348.981 79.192 348.981 80.056V94.888C348.981 95.944 349.189 96.632 349.605 96.952C350.245 97.4 351.397 97.624 353.061 97.624V99.112ZM376.737 87.688C376.737 91.208 375.793 94.104 373.905 96.376C372.017 98.648 369.601 99.784 366.657 99.784C363.713 99.784 361.297 98.648 359.409 96.376C357.521 94.104 356.577 91.208 356.577 87.688C356.577 84.104 357.521 81.176 359.409 78.904C361.265 76.696 363.681 75.592 366.657 75.592C369.601 75.592 372.017 76.696 373.905 78.904C375.793 81.176 376.737 84.104 376.737 87.688ZM373.569 87.688C373.569 84.68 372.929 82.2 371.649 80.248C370.337 78.264 368.673 77.272 366.657 77.272C364.609 77.272 362.929 78.264 361.617 80.248C360.369 82.168 359.745 84.648 359.745 87.688C359.745 90.664 360.385 93.128 361.665 95.08C362.977 97.064 364.641 98.056 366.657 98.056C368.705 98.056 370.369 97.08 371.649 95.128C372.289 94.104 372.769 93 373.089 91.816C373.409 90.6 373.569 89.224 373.569 87.688ZM400.401 93.064C400.561 93.192 400.737 93.336 400.929 93.496C401.121 93.624 401.297 93.752 401.457 93.88C400.657 95 399.809 95.976 398.913 96.808C398.017 97.64 397.057 98.312 396.033 98.824C394.625 99.56 393.185 99.928 391.713 99.928C388.737 99.928 386.273 98.904 384.321 96.856C382.241 94.584 381.201 91.624 381.201 87.976C381.201 84.392 382.129 81.48 383.985 79.24C385.873 76.968 388.369 75.832 391.473 75.832C394.449 75.832 396.801 76.776 398.529 78.664C400.353 80.648 401.265 83.336 401.265 86.728C398.449 86.824 395.649 86.936 392.865 87.064C390.113 87.16 387.329 87.256 384.513 87.352V87.976C384.513 90.856 385.169 93.16 386.481 94.888C387.857 96.84 389.825 97.816 392.385 97.816C393.825 97.816 395.217 97.432 396.561 96.664C397.809 95.928 399.089 94.728 400.401 93.064ZM384.609 85.528C386.817 85.432 389.025 85.352 391.233 85.288C393.441 85.192 395.649 85.096 397.857 85C397.857 82.952 397.297 81.224 396.177 79.816C395.025 78.344 393.457 77.608 391.473 77.608C389.457 77.608 387.809 78.392 386.529 79.96C385.377 81.432 384.737 83.288 384.609 85.528Z" fill="#004F2F"/>
</g>
<g filter="url(#filter1_d_114_18)">
<path d="M99.64 128.76H89.72V127.52C91.0267 127.52 91.92 127.32 92.4 126.92C92.9333 126.44 93.2 125.76 93.2 124.88V110.88H83.08V124.88C83.08 125.84 83.3467 126.547 83.88 127C84.2533 127.347 85.1333 127.52 86.52 127.52V128.76H76.6V127.52C78.12 127.52 79.2 127.28 79.84 126.8C80.32 126.4 80.56 125.747 80.56 124.84V113.24C80.56 112.307 80.32 111.68 79.84 111.36C79.2267 111.04 78.1467 110.88 76.6 110.88V109.56H99.64V110.88C98.12 110.88 97.04 111.04 96.4 111.36C95.9467 111.68 95.72 112.307 95.72 113.24V124.84C95.72 125.747 95.9467 126.4 96.4 126.8C97.0667 127.28 98.1467 127.52 99.64 127.52V128.76ZM120.924 119.08C120.924 122.067 120.124 124.48 118.524 126.32C116.978 127.947 115.084 128.76 112.844 128.76C110.764 128.76 109.071 128.227 107.764 127.16V131.24C107.764 132.013 107.978 132.547 108.404 132.84C108.858 133.133 109.511 133.28 110.364 133.28V134.6H102.724V133.28C103.844 133.28 104.578 133.107 104.924 132.76C105.191 132.493 105.324 131.987 105.324 131.24V113.6C105.324 113.467 105.311 113.36 105.284 113.28C105.284 113.2 105.271 113.12 105.244 113.04C105.218 112.907 105.178 112.8 105.124 112.72C105.098 112.64 105.058 112.56 105.004 112.48C104.711 112.213 104.018 112.08 102.924 112.08C102.898 111.947 102.871 111.813 102.844 111.68C102.818 111.52 102.791 111.373 102.764 111.24C103.618 110.92 104.458 110.613 105.284 110.32C106.111 110.027 106.938 109.72 107.764 109.4V111.04C109.231 109.973 110.964 109.44 112.964 109.44C115.311 109.44 117.204 110.293 118.644 112C118.778 112.133 118.898 112.253 119.004 112.36C119.111 112.467 119.218 112.587 119.324 112.72C120.391 114.427 120.924 116.547 120.924 119.08ZM118.244 119.12C118.244 117.92 118.084 116.853 117.764 115.92C117.471 114.96 117.058 114.12 116.524 113.4C115.458 111.853 113.978 111.08 112.084 111.08C110.351 111.08 108.911 111.68 107.764 112.88V125.16C108.911 126.44 110.351 127.08 112.084 127.08C113.791 127.08 115.231 126.32 116.404 124.8C117.631 123.333 118.244 121.44 118.244 119.12ZM140.504 123.72C140.637 123.827 140.784 123.947 140.944 124.08C141.104 124.187 141.25 124.293 141.384 124.4C140.717 125.333 140.01 126.147 139.264 126.84C138.517 127.533 137.717 128.093 136.864 128.52C135.69 129.133 134.49 129.44 133.264 129.44C130.784 129.44 128.73 128.587 127.104 126.88C125.37 124.987 124.504 122.52 124.504 119.48C124.504 116.493 125.277 114.067 126.824 112.2C128.397 110.307 130.477 109.36 133.064 109.36C135.544 109.36 137.504 110.147 138.944 111.72C140.464 113.373 141.224 115.613 141.224 118.44C138.877 118.52 136.544 118.613 134.224 118.72C131.93 118.8 129.61 118.88 127.264 118.96V119.48C127.264 121.88 127.81 123.8 128.904 125.24C130.05 126.867 131.69 127.68 133.824 127.68C135.024 127.68 136.184 127.36 137.304 126.72C138.344 126.107 139.41 125.107 140.504 123.72ZM127.344 117.44C129.184 117.36 131.024 117.293 132.864 117.24C134.704 117.16 136.544 117.08 138.384 117C138.384 115.293 137.917 113.853 136.984 112.68C136.024 111.453 134.717 110.84 133.064 110.84C131.384 110.84 130.01 111.493 128.944 112.8C127.984 114.027 127.45 115.573 127.344 117.44ZM172.943 128.72H164.463V127.52C165.743 127.52 166.597 127.347 167.023 127C167.37 126.733 167.543 126.187 167.543 125.36V111.44C166.103 114.4 164.677 117.333 163.263 120.24C161.877 123.12 160.463 126.013 159.023 128.92H157.903C156.543 126.093 155.183 123.28 153.823 120.48C152.49 117.68 151.143 114.867 149.783 112.04V125.36C149.783 126.213 149.97 126.76 150.343 127C150.77 127.347 151.557 127.52 152.703 127.52V128.72H145.303V127.52C146.157 127.52 146.797 127.453 147.223 127.32C147.677 127.187 147.97 127 148.103 126.76C148.29 126.493 148.383 126.027 148.383 125.36V112.8C148.383 112.08 148.183 111.573 147.783 111.28C147.33 110.987 146.583 110.84 145.543 110.84V109.6H151.463C152.743 112.187 153.997 114.773 155.223 117.36C156.45 119.92 157.703 122.493 158.983 125.08L166.543 109.6H172.743V110.84C171.863 110.84 171.197 110.907 170.743 111.04C170.477 111.173 170.263 111.32 170.103 111.48C169.943 111.773 169.863 112.093 169.863 112.44V125.36C169.863 126.133 170.01 126.667 170.303 126.96C170.837 127.333 171.717 127.52 172.943 127.52V128.72ZM198.805 128.72H189.325V127.52C190.765 127.52 191.751 127.213 192.285 126.6C192.418 126.387 192.511 126.173 192.565 125.96C192.645 125.72 192.685 125.413 192.685 125.04V115.16C190.978 116.76 189.285 118.36 187.605 119.96C185.925 121.533 184.231 123.12 182.525 124.72V125.32C182.525 125.827 182.631 126.253 182.845 126.6C183.298 127.213 184.298 127.52 185.845 127.52V128.72H176.365V127.52C177.618 127.52 178.551 127.333 179.165 126.96C179.725 126.613 180.005 125.973 180.005 125.04V113.08C180.005 112.227 179.738 111.64 179.205 111.32C178.671 110.973 177.725 110.8 176.365 110.8V109.6H185.845V110.8C184.725 110.8 183.871 110.973 183.285 111.32C182.778 111.64 182.525 112.227 182.525 113.08V122.92C184.231 121.32 185.925 119.72 187.605 118.12C189.285 116.52 190.978 114.92 192.685 113.32V113.08C192.685 112.227 192.405 111.64 191.845 111.32C191.231 110.973 190.391 110.8 189.325 110.8V109.6H198.805V110.8C197.925 110.8 197.218 110.88 196.685 111.04C196.178 111.173 195.805 111.387 195.565 111.68C195.351 111.973 195.245 112.44 195.245 113.08V125.04C195.245 126 195.498 126.653 196.005 127C196.511 127.347 197.445 127.52 198.805 127.52V128.72ZM219.831 119.08C219.831 122.067 219.031 124.48 217.431 126.32C215.884 127.947 213.991 128.76 211.751 128.76C209.671 128.76 207.977 128.227 206.671 127.16V131.24C206.671 132.013 206.884 132.547 207.311 132.84C207.764 133.133 208.417 133.28 209.271 133.28V134.6H201.631V133.28C202.751 133.28 203.484 133.107 203.831 132.76C204.097 132.493 204.231 131.987 204.231 131.24V113.6C204.231 113.467 204.217 113.36 204.191 113.28C204.191 113.2 204.177 113.12 204.151 113.04C204.124 112.907 204.084 112.8 204.031 112.72C204.004 112.64 203.964 112.56 203.911 112.48C203.617 112.213 202.924 112.08 201.831 112.08C201.804 111.947 201.777 111.813 201.751 111.68C201.724 111.52 201.697 111.373 201.671 111.24C202.524 110.92 203.364 110.613 204.191 110.32C205.017 110.027 205.844 109.72 206.671 109.4V111.04C208.137 109.973 209.871 109.44 211.871 109.44C214.217 109.44 216.111 110.293 217.551 112C217.684 112.133 217.804 112.253 217.911 112.36C218.017 112.467 218.124 112.587 218.231 112.72C219.297 114.427 219.831 116.547 219.831 119.08ZM217.151 119.12C217.151 117.92 216.991 116.853 216.671 115.92C216.377 114.96 215.964 114.12 215.431 113.4C214.364 111.853 212.884 111.08 210.991 111.08C209.257 111.08 207.817 111.68 206.671 112.88V125.16C207.817 126.44 209.257 127.08 210.991 127.08C212.697 127.08 214.137 126.32 215.311 124.8C216.537 123.333 217.151 121.44 217.151 119.12ZM239.69 119.24C239.69 122.173 238.903 124.587 237.33 126.48C235.757 128.373 233.743 129.32 231.29 129.32C228.837 129.32 226.823 128.373 225.25 126.48C223.677 124.587 222.89 122.173 222.89 119.24C222.89 116.253 223.677 113.813 225.25 111.92C226.797 110.08 228.81 109.16 231.29 109.16C233.743 109.16 235.757 110.08 237.33 111.92C238.903 113.813 239.69 116.253 239.69 119.24ZM237.05 119.24C237.05 116.733 236.517 114.667 235.45 113.04C234.357 111.387 232.97 110.56 231.29 110.56C229.583 110.56 228.183 111.387 227.09 113.04C226.05 114.64 225.53 116.707 225.53 119.24C225.53 121.72 226.063 123.773 227.13 125.4C228.223 127.053 229.61 127.88 231.29 127.88C232.997 127.88 234.383 127.067 235.45 125.44C235.983 124.587 236.383 123.667 236.65 122.68C236.917 121.667 237.05 120.52 237.05 119.24ZM263.69 123.2C263.69 125.227 262.85 126.693 261.17 127.6C259.863 128.347 258.117 128.72 255.93 128.72H242.73V127.48C244.25 127.48 245.143 127.347 245.41 127.08C245.917 126.813 246.17 126.347 246.17 125.68V112.84C246.17 112.2 245.917 111.72 245.41 111.4C244.903 111.053 244.01 110.88 242.73 110.88V109.64H254.33C254.49 109.64 254.65 109.64 254.81 109.64C254.97 109.64 255.117 109.653 255.25 109.68C260.023 109.76 262.41 111.227 262.41 114.08C262.41 115.2 261.93 116.12 260.97 116.84C260.037 117.56 258.81 118.027 257.29 118.24C261.557 118.72 263.69 120.373 263.69 123.2ZM261.01 123.16C261.01 121.88 260.45 120.853 259.33 120.08C258.343 119.413 257.037 119.08 255.41 119.08H248.73V125.6C248.73 126.347 248.97 126.84 249.45 127.08C249.797 127.32 250.503 127.44 251.57 127.44H255.61C256.517 127.44 257.303 127.347 257.97 127.16C258.637 126.973 259.197 126.72 259.65 126.4C260.557 125.653 261.01 124.573 261.01 123.16ZM259.85 114C259.85 112.8 259.277 111.96 258.13 111.48C257.303 111.107 256.29 110.92 255.09 110.92H252.09C251.503 110.92 250.997 110.973 250.57 111.08C250.143 111.16 249.783 111.267 249.49 111.4C249.357 111.453 249.237 111.533 249.13 111.64C249.05 111.72 248.983 111.8 248.93 111.88C248.797 112.2 248.73 112.533 248.73 112.88V117.6H255.29C256.65 117.6 257.743 117.293 258.57 116.68C259.423 115.987 259.85 115.093 259.85 114ZM284 127.28C282.827 128.693 281.787 129.4 280.88 129.4C279.707 129.4 279 128.653 278.76 127.16C277.107 128.653 275.107 129.4 272.76 129.4C270.92 129.4 269.533 129.013 268.6 128.24C268.12 127.84 267.747 127.36 267.48 126.8C267.213 126.213 267.08 125.533 267.08 124.76C267.08 122.867 268.08 121.253 270.08 119.92C270.24 119.813 270.4 119.72 270.56 119.64C270.72 119.533 270.893 119.427 271.08 119.32C273.187 118.28 275.733 117.56 278.72 117.16V114.32C278.72 113.333 278.4 112.493 277.76 111.8C277.467 111.48 277.107 111.24 276.68 111.08C276.253 110.92 275.787 110.813 275.28 110.76H274.72C274.507 110.76 274.333 110.773 274.2 110.8C273.453 110.88 272.827 111.093 272.32 111.44C271.36 111.973 270.88 112.573 270.88 113.24V113.44C270.88 114.747 270.307 115.4 269.16 115.4L269.12 115.36C268.107 115.28 267.6 114.693 267.6 113.6C267.6 112.427 268.413 111.44 270.04 110.64V110.52C271.64 109.773 273.427 109.4 275.4 109.4C277.027 109.4 278.387 109.84 279.48 110.72C280.6 111.76 281.16 113.173 281.16 114.96V125.84C281.16 126.267 281.2 126.6 281.28 126.84C281.36 127.133 281.467 127.347 281.6 127.48C281.653 127.533 281.72 127.56 281.8 127.56C282.2 127.56 282.773 127.267 283.52 126.68L284 127.28ZM278.72 118.64C276.427 118.88 274.36 119.533 272.52 120.6C270.707 121.64 269.8 123.013 269.8 124.72C269.8 125.573 270.133 126.267 270.8 126.8C271.493 127.307 272.36 127.56 273.4 127.56C274.147 127.56 274.8 127.467 275.36 127.28C276.507 127.013 277.627 126.413 278.72 125.48V118.64ZM307.928 128.76H298.768V127.52C299.915 127.52 300.755 127.333 301.288 126.96C301.742 126.587 301.968 126.013 301.968 125.24V119.4H291.808V125.24C291.808 126.093 291.995 126.667 292.368 126.96C292.902 127.333 293.808 127.52 295.088 127.52V128.76H285.968V127.52C287.355 127.52 288.302 127.307 288.808 126.88C289.128 126.56 289.288 126.013 289.288 125.24V112.88C289.288 112.133 289.115 111.627 288.768 111.36C288.262 110.987 287.342 110.8 286.008 110.8V109.56H294.928V110.8C293.675 110.8 292.835 110.973 292.408 111.32C292.008 111.693 291.808 112.213 291.808 112.88V117.96H301.968V112.88C301.968 112.213 301.742 111.693 301.288 111.32C300.782 110.973 299.942 110.8 298.768 110.8V109.56H307.688V110.8C306.435 110.8 305.555 110.973 305.048 111.32C304.702 111.64 304.528 112.16 304.528 112.88V125.24C304.528 126.12 304.702 126.693 305.048 126.96C305.582 127.333 306.542 127.52 307.928 127.52V128.76ZM333.219 128.72H323.739V127.52C325.179 127.52 326.165 127.213 326.699 126.6C326.832 126.387 326.925 126.173 326.979 125.96C327.059 125.72 327.099 125.413 327.099 125.04V115.16C325.392 116.76 323.699 118.36 322.019 119.96C320.339 121.533 318.645 123.12 316.939 124.72V125.32C316.939 125.827 317.045 126.253 317.259 126.6C317.712 127.213 318.712 127.52 320.259 127.52V128.72H310.779V127.52C312.032 127.52 312.965 127.333 313.579 126.96C314.139 126.613 314.419 125.973 314.419 125.04V113.08C314.419 112.227 314.152 111.64 313.619 111.32C313.085 110.973 312.139 110.8 310.779 110.8V109.6H320.259V110.8C319.139 110.8 318.285 110.973 317.699 111.32C317.192 111.64 316.939 112.227 316.939 113.08V122.92C318.645 121.32 320.339 119.72 322.019 118.12C323.699 116.52 325.392 114.92 327.099 113.32V113.08C327.099 112.227 326.819 111.64 326.259 111.32C325.645 110.973 324.805 110.8 323.739 110.8V109.6H333.219V110.8C332.339 110.8 331.632 110.88 331.099 111.04C330.592 111.173 330.219 111.387 329.979 111.68C329.765 111.973 329.659 112.44 329.659 113.08V125.04C329.659 126 329.912 126.653 330.419 127C330.925 127.347 331.859 127.52 333.219 127.52V128.72ZM352.965 123.72C353.098 123.827 353.245 123.947 353.405 124.08C353.565 124.187 353.711 124.293 353.845 124.4C353.178 125.333 352.471 126.147 351.725 126.84C350.978 127.533 350.178 128.093 349.325 128.52C348.151 129.133 346.951 129.44 345.725 129.44C343.245 129.44 341.191 128.587 339.565 126.88C337.831 124.987 336.965 122.52 336.965 119.48C336.965 116.493 337.738 114.067 339.285 112.2C340.858 110.307 342.938 109.36 345.525 109.36C348.005 109.36 349.965 110.147 351.405 111.72C352.925 113.373 353.685 115.613 353.685 118.44C351.338 118.52 349.005 118.613 346.685 118.72C344.391 118.8 342.071 118.88 339.725 118.96V119.48C339.725 121.88 340.271 123.8 341.365 125.24C342.511 126.867 344.151 127.68 346.285 127.68C347.485 127.68 348.645 127.36 349.765 126.72C350.805 126.107 351.871 125.107 352.965 123.72ZM339.805 117.44C341.645 117.36 343.485 117.293 345.325 117.24C347.165 117.16 349.005 117.08 350.845 117C350.845 115.293 350.378 113.853 349.445 112.68C348.485 111.453 347.178 110.84 345.525 110.84C343.845 110.84 342.471 111.493 341.405 112.8C340.445 114.027 339.911 115.573 339.805 117.44Z" fill="black"/>
</g>
<line x1="0.5" y1="51" x2="0.5" y2="148.059" stroke="black"/>
<line y1="50.5" x2="85.4118" y2="50.5" stroke="black"/>
<line y1="147.559" x2="85.4118" y2="147.559" stroke="black"/>
<line x1="429.912" y1="51" x2="429.912" y2="148.059" stroke="black"/>
<line x1="429.412" y1="148.559" x2="344" y2="148.559" stroke="black"/>
<line x1="429.412" y1="51.5" x2="344" y2="51.5" stroke="black"/>
<path d="M234.865 43.7986C232.656 43.2752 229.046 43.249 227.448 42.8434C226.344 42.5555 224.588 42.2414 224.016 41.7834C223.444 41.3254 223.444 38.0539 223.444 38.0539C223.444 38.0539 224.825 37.1902 225.397 36.2219C225.969 35.2666 226.344 32.6233 226.344 32.6233C226.344 32.6233 227.646 32.9897 228.158 31.2623C228.592 29.7705 229.421 28.9854 229.204 27.8861C228.967 26.7869 228.06 27.0486 228.06 27.0486C228.06 27.0486 229.204 25.9363 229.204 22.1545C229.204 18.2549 224.765 14.4207 216.461 14.4207C208.175 14.4207 203.697 18.268 203.697 22.1545C203.697 25.9363 204.822 27.0486 204.822 27.0486C204.822 27.0486 203.895 26.7869 203.678 27.8861C203.441 28.9854 204.27 29.7705 204.723 31.2623C205.236 33.0027 206.538 32.6233 206.538 32.6233C206.538 32.6233 206.913 35.2535 207.485 36.2219C208.057 37.1902 209.438 38.0539 209.438 38.0539C209.438 38.0539 209.438 41.3254 208.866 41.7834C208.294 42.2414 206.538 42.5555 205.433 42.8303C203.855 43.2359 200.245 43.2883 198.016 43.8117C195.807 44.3352 188.981 46.7168 188.981 52.6055H243.88C243.9 46.7037 237.075 44.3221 234.865 43.7986Z" fill="black"/>
<path d="M190.917 37.7437C190.917 37.7437 195.676 37.6322 197.568 36.4476C194.482 33.1725 196.154 29.3538 195.517 25.7861C194.88 22.2323 191.993 20.1 186.218 20.1H186.138C180.562 20.1 177.556 22.2183 176.918 25.7861C176.281 29.3399 178.053 33.5906 174.887 36.4476C176.779 37.6461 181.558 37.6043 181.558 37.6043C181.558 37.6043 181.757 39.6112 181.359 39.9456C180.961 40.2801 179.786 40.6006 178.969 40.7121C177.217 40.9769 175.365 41.3393 173.812 41.7156C172.259 42.0919 169.312 44.1127 169.312 46.9H185.302C185.74 45.785 188.747 43.7921 191.674 42.7469C193.466 42.1058 195.238 42.1476 196.592 42.0222C196.592 42.0222 197.349 41.186 194.86 40.8654C194.86 40.8654 191.435 40.2662 191.037 39.9317C190.658 39.6251 190.917 37.7437 190.917 37.7437ZM237.116 37.7437C237.116 37.7437 232.356 37.6322 230.465 36.4476C233.551 33.1725 231.879 29.3538 232.516 25.7861C233.153 22.2323 236.04 20.1 241.815 20.1H241.895C247.47 20.1 250.477 22.2183 251.115 25.7861C251.752 29.3399 249.98 33.5906 253.146 36.4476C251.254 37.6461 246.475 37.6043 246.475 37.6043C246.475 37.6043 246.276 39.6112 246.674 39.9456C247.072 40.2801 248.247 40.6006 249.064 40.7121C250.816 40.9769 252.668 41.3393 254.221 41.7156C255.774 42.0919 258.721 44.1127 258.721 46.9H242.731C242.293 45.785 239.286 43.7921 236.359 42.7469C234.567 42.1058 232.795 42.1476 231.44 42.0222C231.44 42.0222 230.684 41.186 233.173 40.8654C233.173 40.8654 236.598 40.2662 236.996 39.9317C237.375 39.6251 237.116 37.7437 237.116 37.7437Z" fill="black"/>
<defs>
<filter id="filter0_d_114_18" x="28.728" y="65.608" width="375.629" height="42.412" filterUnits="userSpaceOnUse" color-interpolation-filters="sRGB">
<feFlood flood-opacity="0" result="BackgroundImageFix"/>
<feColorMatrix in="SourceAlpha" type="matrix" values="0 0 0 0 0 0 0 0 0 0 0 0 0 0 0 0 0 0 127 0" result="hardAlpha"/>
<feOffset dx="2" dy="1"/>
<feGaussianBlur stdDeviation="0.45"/>
<feComposite in2="hardAlpha" operator="out"/>
<feColorMatrix type="matrix" values="0 0 0 0 0 0 0 0 0 0 0 0 0 0 0 0 0 0 0.25 0"/>
<feBlend mode="normal" in2="BackgroundImageFix" result="effect1_dropShadow_114_18"/>
<feBlend mode="normal" in="SourceGraphic" in2="effect1_dropShadow_114_18" result="shape"/>
</filter>
<filter id="filter1_d_114_18" x="76.6001" y="109.16" width="280.145" height="27.34" filterUnits="userSpaceOnUse" color-interpolation-filters="sRGB">
<feFlood flood-opacity="0" result="BackgroundImageFix"/>
<feColorMatrix in="SourceAlpha" type="matrix" values="0 0 0 0 0 0 0 0 0 0 0 0 0 0 0 0 0 0 127 0" result="hardAlpha"/>
<feOffset dx="2" dy="1"/>
<feGaussianBlur stdDeviation="0.45"/>
<feComposite in2="hardAlpha" operator="out"/>
<feColorMatrix type="matrix" values="0 0 0 0 0 0 0 0 0 0 0 0 0 0 0 0 0 0 0.25 0"/>
<feBlend mode="normal" in2="BackgroundImageFix" result="effect1_dropShadow_114_18"/>
<feBlend mode="normal" in="SourceGraphic" in2="effect1_dropShadow_114_18" result="shape"/>
</filter>
</defs>
</svg>
